<svg viewBox="0 0 24.00 24.00" xmlns="http://www.w3.org/2000/svg" fill="#000000" transform="matrix(1, 0, 0, 1, 0, 0)rotate(0)"><g id="SVGRepo_bgCarrier" stroke-width="0"></g><g id="SVGRepo_tracerCarrier" stroke-linecap="round" stroke-linejoin="round" stroke="#CCCCCC" stroke-width="0.4800000000000001"> <g> <path fill="none" d="M0 0h24v24H0z"></path> <path fill-rule="nonzero" d="M12 22C6.477 22 2 17.523 2 12S6.477 2 12 2s10 4.477 10 10-4.477 10-10 10zm0-2a8 8 0 1 0 0-16 8 8 0 0 0 0 16zm1.334-8a1.5 1.5 0 0 0 0-3H10.5v3h2.834zm0-5a3.5 3.5 0 0 1 0 7H10.5v3h-2V7h4.834z"></path> </g> </g><g id="SVGRepo_iconCarrier"> <g> <path fill="none" d="M0 0h24v24H0z"></path> <path fill-rule="nonzero" d="M12 22C6.477 22 2 17.523 2 12S6.477 2 12 2s10 4.477 10 10-4.477 10-10 10zm0-2a8 8 0 1 0 0-16 8 8 0 0 0 0 16zm1.334-8a1.5 1.5 0 0 0 0-3H10.5v3h2.834zm0-5a3.5 3.5 0 0 1 0 7H10.5v3h-2V7h4.834z"></path> </g> </g></svg>